# xmcd
#
# Track frame offsets:
#	150
#	15147
#	33526
#	42646
#	56154
#	67489
#	81064
#	95777
#	114981
#	133944
#
# Disc length: 1989 seconds
#
# Revision: 0
# Processed by: cddbd v1.5.1PL0 Copyright (c) Steve Scherf et al.
# Submitted via: dBpowerAMP V4.0
#
DISCID=8f07c30a
DTITLE=Derek Duplessie and the Desert Poets - (((( Stereo ))))
DYEAR=2003
DGENRE=Country
TTITLE0=When You're Around
TTITLE1=Not Coming Home Today
TTITLE2=American Dreamer
TTITLE3=I Won't Back Down
TTITLE4=Harvest
TTITLE5=She Don't Love Nobody
TTITLE6=You're Still Standing There
TTITLE7=L.A. Standard Time
TTITLE8=Back Home to You
TTITLE9=Angry All The Time
EXTD=www.derekduplessie.com
EXTT0=
EXTT1=
EXTT2=
EXTT3=
EXTT4=
EXTT5=
EXTT6=
EXTT7=
EXTT8=
EXTT9=
PLAYORDER=
